{
    "accessors" : [
        {
            "bufferView" : 0,
            "componentType" : 5123,
            "count" : 46356,
            "max" : [
                14555
            ],
            "min" : [
                0
            ],
            "type" : "SCALAR"
        },
        {
            "bufferView" : 1,
            "componentType" : 5126,
            "count" : 14556,
            "max" : [
                0.9424954056739807,
                0.8128451108932495,
                0.900973916053772
            ],
            "min" : [
                -0.9474585652351379,
                -1.18715500831604,
                -0.9009949564933777
            ],
            "type" : "VEC3"
        },
        {
            "bufferView" : 2,
            "componentType" : 5126,
            "count" : 14556,
            "max" : [
                1.0,
                1.0,
                1.0
            ],
            "min" : [
                -1.0,
                -1.0,
                -1.0
            ],
            "type" : "VEC3"
        },
        {
            "bufferView" : 3,
            "componentType" : 5126,
            "count" : 14556,
            "max" : [
                0.9999759793281555,
                1.998665988445282
            ],
            "min" : [
                0.002448640065267682,
                1.0005531199858524
            ],
            "type" : "VEC2"
        }
    ],
    "asset" : {
        "generator" : "Khronos Blender glTF 2.0 exporter",
        "version" : "2.0"
    },
    "bufferViews" : [
        {
            "buffer" : 0,
            "byteLength" : 92712,
            "byteOffset" : 0,
            "target" : 34963
        },
        {
            "buffer" : 0,
            "byteLength" : 174672,
            "byteOffset" : 92712,
            "target" : 34962
        },
        {
            "buffer" : 0,
            "byteLength" : 174672,
            "byteOffset" : 267384,
            "target" : 34962
        },
        {
            "buffer" : 0,
            "byteLength" : 116448,
            "byteOffset" : 442056,
            "target" : 34962
        }
    ],
    "buffers" : [
        {
            "byteLength" : 558504,
            "uri" : "DamagedHelmet.bin"
        }
    ],
    "images" : [
        {
            "uri" : "Default_albedo.jpg"
        },
        {
            "uri" : "Default_metalRoughness.jpg"
        },
        {
            "uri" : "Default_emissive.jpg"
        },
        {
            "uri" : "Default_AO.jpg"
        },
        {
            "uri" : "Default_normal.jpg"
        }
    ],
    "materials" : [
        {
            "emissiveFactor" : [
                1.0,
                1.0,
                1.0
            ],
            "emissiveTexture" : {
                "index" : 2
            },
            "name" : "Material_MR",
            "normalTexture" : {
                "index" : 4
            },
            "occlusionTexture" : {
                "index" : 3
            },
            "pbrMetallicRoughness" : {
                "baseColorTexture" : {
                    "index" : 0
                },
                "metallicRoughnessTexture" : {
                    "index" : 1
                }
            }
        }
    ],
    "meshes" : [
        {
            "name" : "mesh_helmet_LP_13930damagedHelmet",
            "primitives" : [
                {
                    "attributes" : {
                        "NORMAL" : 2,
                        "POSITION" : 1,
                        "TEXCOORD_0" : 3
                    },
                    "indices" : 0,
                    "material" : 0
                }
            ]
        }
    ],
    "nodes" : [
        {
            "mesh" : 0,
            "name" : "node_damagedHelmet_-6514",
            "rotation" : [
                0.7071068286895752,
                0.0,
                -0.0,
                0.7071068286895752
            ]
        },
	{
	    "name" : "light0",
	    "translation" : [
	        0.0,
		0.0,
		2.0
	    ],
	    "extensions" : {
		"KHR_lights_punctual" : {
		    "light" : 0
		}
	    }
	},
	{
	    "name" : "light1",
	    "translation" : [
	        -0.5,
		-0.1,
		-1.5
	    ],
	    "extensions" : {
		"KHR_lights_punctual" : {
		    "light" : 1
		}
	    }
	},
	{
	    "name" : "light2",
	    "translation" : [
	        0.6,
		0.3,
		-1.7
	    ],
	    "extensions" : {
		"KHR_lights_punctual" : {
		    "light" : 2
		}
	    }
	},
	{
	    "name" : "light3",
	    "translation" : [
	        0.1,
		1.4,
		0.2
	    ],
	    "extensions" : {
		"KHR_lights_punctual" : {
		    "light" : 3
		}
	    }
	},
	{
	    "name" : "light4",
	    "translation" : [
	        -0.2,
		-0.5,
		-0.9
	    ],
	    "extensions" : {
		"KHR_lights_punctual" : {
		    "light" : 4
		}
	    }
	},
	{
	    "name" : "light5",
	    "matrix" : [
		0.19518001, 0.97590007, -0.09759001, 0.0,
		0.4472136, 0.0, 0.89442719, 0.0,
		0.87287156, -0.21821789, -0.43643578, 0.0,
		0.0, 0.0, 0.0, 1.0
	    ],
	    "extensions" : {
		"KHR_lights_punctual" : {
		    "light" : 5
		}
	    }
	},
	{
	    "name" : "light6",
	    "extensions" : {
		"KHR_lights_punctual" : {
		    "light" : 6
		}
	    }
	}
    ],
    "samplers" : [
        {}
    ],
    "scene" : 0,
    "scenes" : [
        {
            "name" : "Scene",
            "nodes" : [
                0
            ]
        }
    ],
    "textures" : [
        {
            "sampler" : 0,
            "source" : 0
        },
        {
            "sampler" : 0,
            "source" : 1
        },
        {
            "sampler" : 0,
            "source" : 2
        },
        {
            "sampler" : 0,
            "source" : 3
        },
        {
            "sampler" : 0,
            "source" : 4
        }
    ],
    "extensions" : {
	"KHR_lights_punctual" : {
	    "lights" : [
		{
		    "color" : [
			1.0,
			1.0,
			1.0
		    ],
		    "type" : "point",
		    "range" : 4.0
		},
		{
		    "color" : [
			0.4,
			1.0,
			0.4
		    ],
		    "type" : "point",
		    "range" : 1.0,
		    "intensity": 0.3
		},
		{
		    "color" : [
			0.6,
			0.3,
			0.4
		    ],
		    "type" : "point",
		    "range" : 1.3,
		    "intensity": 0.5
		},
		{
		    "color" : [
			0.1,
			0.2,
			0.8
		    ],
		    "type" : "point",
		    "range" : 2.0,
		    "intensity": 1.5
		},
		{
		    "color" : [
			0.9,
			0.8,
			0.1
		    ],
		    "type" : "point",
		    "range" : 3.0,
		    "intensity": 0.8
		},
		{
		    "color" : [
			1.0,
			1.0,
			0.9
		    ],
		    "type" : "directional",
		    "intensity" : 1.0
		},
		{
		    "color" : [
			0.0,
			1.0,
			1.0
		    ],
		    "type" : "ambient",
		    "intensity" : 0.2
		}
	    ]
	}
    }
}
